<svg width="16" height="17" viewBox="0 0 16 17" fill="none" xmlns="http://www.w3.org/2000/svg">
<mask id="path-1-inside-1_307_3812" fill="white">
<path fill-rule="evenodd" clip-rule="evenodd" d="M8.65225 0.255668C8.27727 -0.0669931 7.72273 -0.0669938 7.34775 0.255667L0.516763 6.13362C0.455675 6.18618 0.403125 6.24289 0.3587 6.30262C0.13945 6.48605 0 6.76171 0 7.06994V15.9995C0 16.5518 0.447715 16.9995 1 16.9995H15C15.5523 16.9995 16 16.5518 16 15.9995V7.06994C16 6.76171 15.8606 6.48605 15.6413 6.30262C15.5969 6.24289 15.5443 6.18619 15.4832 6.13362L8.65225 0.255668Z"/>
</mask>
<path d="M7.34775 0.255667L8 1.01367V1.01367L7.34775 0.255667ZM8.65225 0.255668L9.3045 -0.502336L9.3045 -0.502336L8.65225 0.255668ZM0.516763 6.13362L1.16901 6.89162L1.16901 6.89162L0.516763 6.13362ZM0.3587 6.30262L1.00039 7.06958L1.09076 6.99397L1.16108 6.89943L0.3587 6.30262ZM15.6413 6.30262L14.8389 6.89943L14.9092 6.99397L14.9996 7.06958L15.6413 6.30262ZM15.4832 6.13362L16.1355 5.37562L16.1355 5.37562L15.4832 6.13362ZM8 1.01367V1.01367L9.3045 -0.502336C8.55455 -1.14766 7.44546 -1.14766 6.6955 -0.502336L8 1.01367ZM1.16901 6.89162L8 1.01367L6.6955 -0.502337L-0.135487 5.37562L1.16901 6.89162ZM1.16108 6.89943C1.1608 6.89981 1.16279 6.89698 1.16901 6.89162L-0.135486 5.37561C-0.251435 5.47539 -0.354545 5.58597 -0.443678 5.7058L1.16108 6.89943ZM1 7.06994L1.00039 7.06958L-0.282989 5.53565C-0.71961 5.90095 -1 6.45317 -1 7.06994H1ZM1 15.9995V7.06994H-1V15.9995H1ZM1 15.9995H-1C-1 17.1041 -0.10457 17.9995 1 17.9995V15.9995ZM15 15.9995H1V17.9995H15V15.9995ZM15 15.9995V15.9995V17.9995C16.1046 17.9995 17 17.1041 17 15.9995H15ZM15 7.06994V15.9995H17V7.06994H15ZM14.9996 7.06958L15 7.06994H17C17 6.45317 16.7196 5.90095 16.283 5.53565L14.9996 7.06958ZM14.831 6.89162C14.8372 6.89698 14.8392 6.89981 14.8389 6.89943L16.4437 5.7058C16.3545 5.58597 16.2514 5.47539 16.1355 5.37562L14.831 6.89162ZM8 1.01367L14.831 6.89162L16.1355 5.37562L9.3045 -0.502336L8 1.01367Z" fill="black" mask="url(#path-1-inside-1_307_3812)"/>
</svg>
